# xmcd CD database file
#
# Track frame offsets:
#	150
#	21245
#	41474
#	64126
#	83802
#	99643
#	110032
#	123958
#	145916
#	159942
#	189880
#	211612
#	231496
#	258569
#	278995
#	297288
#
# Disc length: 4228 seconds
#
# Revision: 0
# Processed by: cddbd v1.5.2PL0 Copyright (c) Steve Scherf et al.
# Submitted via: CDex 2.07
#
DISCID=e4108210
DTITLE=Elvis Presley - American Sound 1969, CD 1
DYEAR=2019
DGENRE=Country
TTITLE0=Long black Limousine (Takes 1, 2, 3 and 5)
TTITLE1=Long black Limousine (Take 6)
TTITLE2=Long black Limousine (Takes 7, 8 and 9)
TTITLE3=Long black Limousine (Take 9, undubbed master with vocal repairs)
TTITLE4=This is the story (Takes 1 and 2, take 2 master track and vocal overdub)
TTITLE5=Wearin' that loved on look (Takes 1, 2, 3 and 5)
TTITLE6=Wearin' that loved on look (Take 10)
TTITLE7=Wearin' that loved on look (Take 12, 13 and 14)
TTITLE8=Wearin' that loved on look (Take 15, undubbed master)
TTITLE9=You'll think of me (Takes 1-6)
TTITLE10=You'll think of me (Take 7)
TTITLE11=You'll think of me (Take 8)
TTITLE12=You'll think of me (Takes 11 and 14)
TTITLE13=You'll think of me (Take 16)
TTITLE14=You'll think of me (Takes 19, 20 and 22)
TTITLE15=You'll think of me (Take 23, undubbed master)
EXTD=YEAR: 2019
EXTT0=
EXTT1=
EXTT2=
EXTT3=
EXTT4=
EXTT5=
EXTT6=
EXTT7=
EXTT8=
EXTT9=
EXTT10=
EXTT11=
EXTT12=
EXTT13=
EXTT14=
EXTT15=
PLAYORDER=
